<svg width="175" height="33" fill="none" xmlns="http://www.w3.org/2000/svg"><g clip-path="url(#clip0)" fill="#C4C4C4"><path d="M0 0h12.83c2.444 0 4.276.607 5.634 1.618 1.493 1.213 2.308 2.965 2.308 5.122 0 2.494-1.018 4.044-3.055 4.988v.135c2.716.876 4.277 3.302 4.277 6.2 0 2.764-1.086 4.921-2.851 6.27-1.494 1.078-3.394 1.55-5.974 1.55H0V0zm11.54 10.11c1.358 0 2.376-.741 2.376-2.291 0-1.483-1.018-2.225-2.444-2.225H7.06v4.449h4.48v.067zm.61 10.043c1.562 0 2.716-.943 2.716-2.628 0-1.82-1.222-2.63-2.715-2.63H7.128v5.326h5.023v-.068zM23.148 0h6.72v25.95h-6.72V0zm8.078 16.716c0-5.864 3.801-9.774 9.707-9.774 5.906 0 9.639 3.977 9.639 9.774 0 5.864-3.733 9.773-9.64 9.773-5.905 0-9.706-3.91-9.706-9.773zm12.626 0c0-3.236-1.019-5.258-3.055-5.258-2.036 0-2.987 2.022-2.987 5.258 0 3.235.95 5.324 2.987 5.324 2.036-.067 3.055-2.089 3.055-5.324zm7.467 0c0-5.864 3.801-9.774 9.707-9.774 5.906 0 9.571 3.91 9.571 9.774 0 5.864-3.733 9.773-9.639 9.773-5.838 0-9.64-3.91-9.64-9.773zm12.626 0c0-3.236-1.018-5.258-3.055-5.258-2.036 0-2.987 2.022-2.987 5.258 0 3.235.95 5.324 2.987 5.324 2.037-.067 3.055-2.089 3.055-5.324zm8.01-9.302H78.2v2.764h.136c1.222-2.157 2.919-3.303 5.634-3.303 2.376 0 4.141 1.146 5.023 3.168h.136c1.494-2.427 3.462-3.168 5.77-3.168 4.345 0 6.177 3.168 6.177 7.414v11.593H94.56V15.435c0-1.887-.611-3.1-2.24-3.1-1.63 0-2.444 1.482-2.444 3.504v10.043h-6.517V15.435c0-1.887-.61-3.1-2.24-3.1-1.629 0-2.444 1.482-2.444 3.504v10.043h-6.72V7.414zm37.335 16.042h-.068v2.426h-6.245V0h6.517v9.301h.135c1.222-1.617 2.919-2.493 5.295-2.493 4.684 0 7.399 4.178 7.399 9.773 0 6.268-2.918 9.908-7.806 9.908-2.036 0-4.141-.944-5.227-3.033zm6.313-6.942c0-2.966-1.086-4.92-3.055-4.92-2.036 0-3.258 1.954-3.258 4.92 0 2.965 1.29 4.92 3.258 4.92 1.969 0 3.055-1.887 3.055-4.92zm7.467.134c0-5.796 3.87-9.773 9.436-9.773 2.783 0 4.887.876 6.517 2.426 2.172 2.09 3.122 5.325 3.054 9.1h-12.49c.272 2.291 1.358 3.505 3.326 3.505 1.154 0 2.172-.54 2.58-1.753h6.313c-1.086 4.247-4.413 6.336-9.096 6.336-5.77-.067-9.64-3.977-9.64-9.84zm6.517-1.954h5.974c-.136-2.225-1.358-3.37-2.919-3.37-1.833-.068-2.851 1.213-3.055 3.37zm19.89-4.112h.135c1.358-2.561 3.123-3.572 5.363-3.572.543 0 .882.067 1.086.202v5.662h-.136c-3.869-.674-6.109 1.146-6.109 5.324v7.752h-6.585V7.414h6.246v3.168zm7.263 15.368h6.313c.271.809 1.086 1.55 2.647 1.55 2.105 0 2.851-1.28 2.851-3.235v-1.348h-.135c-1.019 1.213-2.444 2.09-4.481 2.09-4.005 0-7.535-2.966-7.535-8.763 0-5.325 2.851-9.436 7.196-9.436 2.512 0 4.005 1.01 5.023 2.56h.136v-2.02H175v16.041c0 2.966-1.018 5.258-2.579 6.606-1.63 1.415-3.938 2.022-6.585 2.022-5.023.067-8.485-1.955-9.096-6.066zm12.083-9.976c0-2.291-1.086-4.179-2.987-4.179-1.833 0-2.987 1.618-2.987 4.18 0 2.493 1.154 4.246 2.987 4.246 1.833 0 2.987-1.82 2.987-4.247z"/></g><defs><clipPath id="clip0"><path fill="#fff" d="M0 0h175v32.083H0z"/></clipPath></defs></svg>