<svg width="175" height="35" fill="none" xmlns="http://www.w3.org/2000/svg"><g clip-path="url(#clip0)" fill="#C4C4C4"><path d="M20.3 6.467l-10.15 6.468 10.15 6.467-10.15 6.467L0 19.367 10.15 12.9 0 6.467 10.15 0 20.3 6.467zM10.097 27.95l10.15-6.467 10.15 6.467-10.15 6.468-10.15-6.468zM20.3 19.367L30.45 12.9 20.3 6.467 30.398 0l10.15 6.467-10.15 6.468 10.15 6.467-10.15 6.467L20.3 19.367zm28.21-12.9h8.207c5.233 0 9.555 3.024 9.555 9.929v1.45c0 6.957-4.042 10.086-9.397 10.086H48.51V6.467zm4.585 3.898v13.652h3.517c2.975 0 4.97-1.94 4.97-6.258v-1.136c0-4.318-2.1-6.258-5.127-6.258h-3.36zm15.61.21h3.675l.595 4.038c.7-2.745 2.485-4.213 5.722-4.213h1.138v4.632h-1.89c-3.728 0-4.638 1.294-4.638 4.964v7.988h-4.532V10.575h-.07zm12.04 9.054v-.49c0-5.82 3.727-9.001 8.802-9.001 5.18 0 8.803 3.181 8.803 9.002v.49c0 5.715-3.518 8.791-8.803 8.791-5.617-.052-8.802-3.059-8.802-8.792zm12.967-.052v-.437c0-3.234-1.627-5.174-4.217-5.174-2.538 0-4.218 1.783-4.218 5.174v.437c0 3.129 1.628 4.911 4.218 4.911 2.59-.052 4.217-1.782 4.217-4.911zm7.018-9.002h3.78l.437 3.286c.91-2.202 2.853-3.723 5.723-3.723 4.427 0 7.35 3.181 7.35 9.072v.49c0 5.715-3.238 8.739-7.35 8.739-2.748 0-4.638-1.241-5.565-3.234v8.792h-4.428l.053-23.422zm12.687 9.002v-.385c0-3.46-1.785-5.174-4.165-5.174-2.537 0-4.217 1.94-4.217 5.174v.332c0 3.077 1.627 5.017 4.165 5.017 2.607-.053 4.217-1.713 4.217-4.964zm11.305 5.191l-.385 3.181h-3.885V4.754h4.428v8.897c.98-2.272 2.922-3.513 5.67-3.513 4.165.052 7.245 2.919 7.245 8.687v.542c0 5.768-2.923 9.072-7.35 9.072-2.923-.07-4.813-1.416-5.723-3.67zm8.418-5.4v-.438c0-3.181-1.733-4.964-4.165-4.964-2.485 0-4.218 1.993-4.218 5.017v.384c0 3.234 1.68 5.121 4.165 5.121 2.66 0 4.218-1.66 4.218-5.12zm6.597.261v-.49c0-5.82 3.728-9.001 8.803-9.001 5.18 0 8.802 3.181 8.802 9.002v.49c0 5.715-3.57 8.791-8.802 8.791-5.618-.052-8.803-3.059-8.803-8.792zm13.003-.052v-.437c0-3.234-1.628-5.174-4.218-5.174-2.537 0-4.217 1.783-4.217 5.174v.437c0 3.129 1.627 4.911 4.217 4.911 2.608-.052 4.218-1.782 4.218-4.911zm10.535-.647l-6.108-8.355h5.233l3.517 5.226 3.57-5.226h5.18l-6.195 8.303L175 27.949h-5.128l-3.99-5.768-3.885 5.768h-5.355l6.633-9.019z"/></g><defs><clipPath id="clip0"><path fill="#fff" d="M0 0h175v34.417H0z"/></clipPath></defs></svg>