<svg width="175" height="70" fill="none" xmlns="http://www.w3.org/2000/svg"><path d="M22.672 15.305C10.337 15.305.058 20.525.058 36.27.058 48.744 6.97 56.6 22.99 56.6c18.857 0 20.066-12.39 20.066-12.39H33.92s-1.959 6.672-11.486 6.672c-7.76 0-13.34-5.228-13.34-12.555h34.919v-4.598c0-7.25-4.615-18.424-21.34-18.424zm-.319 5.877c7.387 0 12.422 4.512 12.422 11.276H9.295c0-7.18 6.572-11.276 13.058-11.276z" fill="#C4C4C4"/><path d="M44.005.058v48.634c0 2.76-.197 6.636-.197 6.636h8.715s.312-2.784.312-5.328c0 0 4.306 6.718 16.014 6.718 12.328 0 20.702-8.536 20.702-20.766 0-11.377-7.692-20.528-20.683-20.528-12.165 0-15.945 6.552-15.945 6.552V.058h-8.918zM66.62 21.44c8.372 0 13.696 6.196 13.696 14.512 0 8.917-6.15 14.75-13.636 14.75-8.936 0-13.756-6.957-13.756-14.67 0-7.188 4.325-14.592 13.696-14.592z" fill="#C4C4C4"/><path d="M111.209 15.305c-18.557 0-19.747 10.134-19.747 11.753h9.237s.484-5.916 9.873-5.916c6.102 0 10.83 2.785 10.83 8.14v1.905h-10.83c-14.376 0-21.976 4.195-21.976 12.706 0 8.377 7.022 12.934 16.512 12.934 12.934 0 17.1-7.127 17.1-7.127 0 2.835.219 5.628.219 5.628h8.211s-.318-3.462-.318-5.677V30.502c0-12.555-10.155-15.197-19.111-15.197zm10.193 21.6v2.541c0 3.315-2.051 11.555-14.124 11.555-6.611 0-9.446-3.29-9.446-7.108 0-6.943 9.546-6.988 23.57-6.988z" fill="#C4C4C4"/><path d="M125.346 16.895h10.391l14.913 29.796 14.879-29.796h9.413l-27.101 53.047h-9.874l7.82-14.788-20.441-38.259z" fill="#C4C4C4"/></svg>