<svg width="175" height="65" fill="none" xmlns="http://www.w3.org/2000/svg"><g clip-path="url(#clip0)" fill="#C4C4C4"><path d="M101.351 40.195l11.366-12.757-11.366-12.76h11.992l5.63 6.198 5.421-6.197h11.574l-11.312 12.706 11.467 12.81h-12.042l-5.578-6.248-5.526 6.248h-11.626zm0-31.236H88.478v5.72h12.873v8.62H88.478v7.912h12.873v8.984H79.017V0h22.334v8.959z"/><path d="M69.595 0v16.45h-.104c-2.086-2.395-4.692-3.227-7.716-3.227-6.194 0-10.86 4.206-12.497 9.767-1.868-6.128-6.685-9.882-13.828-9.882-5.8 0-10.381 2.6-12.772 6.839v-5.268h-11.99V8.96h13.085V0H0v40.195h10.688V23.3h10.653a16 16 0 00-.487 3.972c0 8.385 6.413 14.268 14.596 14.268 6.881 0 11.416-3.227 13.815-9.11h-9.16c-1.238 1.767-2.178 2.292-4.655 2.292-2.872 0-5.349-2.504-5.349-5.47h18.65c.81 6.659 6.003 12.402 13.13 12.402 3.074 0 5.889-1.51 7.61-4.06h.104v2.601h9.422V0h-9.422zM30.399 23.419c.594-2.553 2.576-4.222 5.05-4.222 2.725 0 4.606 1.617 5.101 4.222H30.4zm33.478 10.656c-3.473 0-5.631-3.233-5.631-6.608 0-3.608 1.877-7.077 5.631-7.077 3.893 0 5.444 3.47 5.444 7.077-.001 3.422-1.644 6.608-5.444 6.608zm20.328 25.378c1.454 0 3.027-.855 3.327-2.387h1.433c-.517 2.208-2.43 3.46-4.799 3.46-4.381 0-6.154-3.38-6.154-7.437s1.773-7.44 6.154-7.44c2.37 0 4.282 1.253 4.799 3.462h-1.433c-.3-1.533-1.873-2.385-3.327-2.385-3.605 0-4.82 3.281-4.82 6.364 0 3.08 1.215 6.363 4.82 6.363zm10.734 1.074c-3.068 0-4.72-2.367-4.72-5.27 0-2.904 1.652-5.271 4.72-5.271 3.065 0 4.72 2.367 4.72 5.27 0 2.904-1.655 5.27-4.72 5.27zm0-.915c2.41 0 3.424-2.187 3.424-4.356 0-2.167-1.015-4.356-3.424-4.356-2.41 0-3.426 2.19-3.426 4.356 0 2.169 1.015 4.356 3.426 4.356zm11.049-8.454c-2.01 0-2.707 1.692-2.707 3.44v5.692h-1.214v-7.102c0-.973-.021-1.97-.06-2.965h1.193l.081 1.451c.599-1.152 1.593-1.69 2.926-1.69.18 0 .38.02.56.04v1.214c-.281-.038-.499-.08-.779-.08zm3.359 12.91h-1.215v-10.84c0-.995 0-2.01-.061-3.003h1.195l.04 1.513c.756-1.196 1.753-1.752 3.247-1.752 3.105 0 4.44 2.567 4.44 5.27 0 2.707-1.335 5.27-4.44 5.27-1.395 0-2.489-.533-3.206-1.689v5.23zm6.352-8.812c0-2.147-.897-4.257-3.286-4.257-2.249 0-3.066 1.852-3.066 4.257 0 2.408.817 4.256 3.066 4.256 2.389 0 3.286-2.106 3.286-4.256zm7.548 5.271c-3.068 0-4.72-2.367-4.72-5.27 0-2.904 1.652-5.271 4.72-5.271 3.065 0 4.719 2.367 4.719 5.27 0 2.904-1.655 5.27-4.719 5.27zm0-.915c2.408 0 3.425-2.187 3.425-4.356 0-2.167-1.017-4.356-3.425-4.356-2.411 0-3.426 2.19-3.426 4.356-.001 2.169 1.014 4.356 3.426 4.356zm11.052-8.454c-2.012 0-2.708 1.692-2.708 3.44v5.692h-1.215v-7.102c0-.973-.02-1.97-.062-2.965h1.197l.08 1.451c.597-1.152 1.593-1.69 2.926-1.69.181 0 .378.02.557.04v1.214c-.277-.038-.499-.08-.775-.08zm7.931 9.132c-.081-.48-.119-.817-.158-1.354-.778 1.172-1.792 1.59-3.368 1.59-1.832 0-3.505-.933-3.505-2.962 0-2.924 3.087-3.362 5.557-3.362.477 0 .877.02 1.174.038v-.756c0-1.708-.698-2.585-2.47-2.585-1.293 0-2.209.498-2.368 1.929h-1.216c.02-2.167 1.912-2.844 3.584-2.844 2.49 0 3.686.677 3.686 3.163v3.42c0 1.554.059 2.468.24 3.723h-1.156zm-.298-5.134c-.339-.019-.617-.037-.956-.037-1.673 0-4.48.097-4.48 2.405 0 1.393 1.154 2.086 2.431 2.086 2.031 0 3.005-1.191 3.005-3.517v-.937zm6.471 5.371c-1.453 0-2.13-.854-2.13-2.306v-7.082h-1.635v-.915h1.635v-2.049l1.214-.536v2.585h2.231v.915h-2.231v6.546c0 1.411.238 1.828 1.253 1.828.381 0 .857-.138 1.077-.259v1.037c-.419.117-.777.236-1.414.236zm2.923-13.108v-1.513h1.453v1.513h-1.453zm.119 12.871V50.224h1.215v10.067h-1.215zm8.345.237c-3.068 0-4.72-2.367-4.72-5.27 0-2.904 1.652-5.271 4.72-5.271 3.067 0 4.719 2.367 4.719 5.27-.001 2.904-1.653 5.27-4.719 5.27zm0-.915c2.409 0 3.424-2.187 3.424-4.356 0-2.167-1.015-4.356-3.424-4.356s-3.425 2.19-3.425 4.356c-.001 2.169 1.015 4.356 3.425 4.356zm8.26-9.388l.04 1.514c.699-1.176 1.791-1.753 3.267-1.753 2.688 0 3.584 1.471 3.584 3.999v6.307h-1.215V54.46c0-1.869-.437-3.462-2.569-3.462-2.269 0-3.026 2.01-3.026 3.999v5.293h-1.215v-7.063c0-.994-.019-2.01-.059-3.002h1.193z"/></g><defs><clipPath id="clip0"><path fill="#fff" d="M0 0h175v64.068H0z"/></clipPath></defs></svg>