<svg width="175" height="55" fill="none" xmlns="http://www.w3.org/2000/svg"><path d="M92.229 13.777a3.554 3.554 0 11-7.107 0c0-1.976 1.53-3.568 3.553-3.568 2.023.055 3.554 1.647 3.554 3.568zm-14.652 7.19v.879s-1.695-2.196-5.303-2.196c-5.959 0-10.606 4.556-10.606 10.868 0 6.257 4.592 10.868 10.606 10.868 3.663 0 5.303-2.25 5.303-2.25v.932c0 .44.328.769.766.769h4.428V20.199h-4.428c-.438 0-.766.384-.766.768zm0 13.228c-.82 1.208-2.46 2.25-4.428 2.25-3.499 0-6.178-2.195-6.178-5.927 0-3.733 2.68-5.928 6.178-5.928 1.913 0 3.663 1.098 4.428 2.25v7.355zM86.051 20.2H91.3v20.638h-5.25V20.199zm78.398-.549c-3.609 0-5.303 2.196-5.303 2.196V10.264h-5.249v30.573h4.429c.437 0 .765-.384.765-.769v-.933s1.695 2.25 5.303 2.25c5.959 0 10.606-4.61 10.606-10.867 0-6.257-4.647-10.868-10.551-10.868zm-.875 16.74c-2.023 0-3.608-1.042-4.428-2.25v-7.355c.82-1.097 2.569-2.25 4.428-2.25 3.499 0 6.178 2.196 6.178 5.928 0 3.732-2.679 5.928-6.178 5.928zm-12.41-7.793v12.295h-5.249V29.2c0-3.402-1.093-4.775-4.045-4.775-1.586 0-3.226.824-4.265 2.031v14.38h-5.248V20.2h4.155c.437 0 .765.384.765.768v.879c1.531-1.592 3.554-2.196 5.577-2.196 2.296 0 4.209.659 5.74 1.976 1.859 1.537 2.57 3.513 2.57 6.97zm-31.545-8.947c-3.608 0-5.303 2.196-5.303 2.196V10.264h-5.249v30.573h4.429c.437 0 .765-.384.765-.769v-.933s1.695 2.25 5.303 2.25c5.959 0 10.606-4.61 10.606-10.867.055-6.257-4.592-10.868-10.551-10.868zm-.875 16.74c-2.023 0-3.608-1.042-4.428-2.25v-7.355c.82-1.097 2.569-2.25 4.428-2.25 3.499 0 6.178 2.196 6.178 5.928 0 3.732-2.679 5.928-6.178 5.928zM104.53 19.65c1.585 0 2.405.274 2.405.274v4.886s-4.373-1.482-7.107 1.646v14.436H94.58V20.199h4.428c.438 0 .766.384.766.768v.879c.984-1.153 3.116-2.196 4.756-2.196zM50.023 38.97c-.273-.658-.546-1.372-.82-1.975-.437-.988-.874-1.921-1.257-2.8l-.055-.054A573.849 573.849 0 0035.81 9.33L35.646 9c-.437-.823-.875-1.7-1.312-2.58-.547-.987-1.093-2.03-1.968-3.018C30.615 1.208 28.1 0 25.422 0c-2.734 0-5.194 1.208-6.998 3.293-.82.988-1.421 2.031-1.968 3.02-.438.877-.875 1.756-1.312 2.579l-.164.33C10.77 17.453 6.67 25.796 2.898 34.03l-.055.11c-.383.878-.82 1.81-1.258 2.799a36.2 36.2 0 00-.82 1.976c-.71 2.03-.929 3.952-.656 5.928.602 4.116 3.335 7.574 7.107 9.111 1.422.604 2.898.878 4.429.878.437 0 .984-.055 1.421-.11 1.804-.219 3.663-.823 5.467-1.866 2.242-1.262 4.374-3.073 6.78-5.708 2.405 2.635 4.592 4.446 6.779 5.708 1.804 1.043 3.662 1.647 5.467 1.867.437.054.984.11 1.421.11 1.53 0 3.062-.275 4.428-.879 3.827-1.537 6.506-5.05 7.108-9.111.437-1.921.218-3.843-.493-5.873zm-24.656 2.855c-2.952-3.733-4.866-7.245-5.522-10.21-.273-1.262-.328-2.36-.164-3.348.11-.878.438-1.646.875-2.305 1.039-1.482 2.788-2.415 4.811-2.415s3.827.878 4.811 2.415c.437.659.765 1.427.875 2.305.164.988.11 2.141-.164 3.349-.656 2.909-2.57 6.422-5.522 10.209zm21.814 2.58c-.383 2.854-2.297 5.324-4.975 6.422-1.313.548-2.734.713-4.155.548-1.367-.164-2.734-.603-4.155-1.427-1.969-1.098-3.937-2.799-6.233-5.324 3.608-4.446 5.795-8.508 6.615-12.13.383-1.702.438-3.239.274-4.666-.219-1.372-.711-2.634-1.476-3.732-1.695-2.47-4.538-3.897-7.709-3.897-3.17 0-6.014 1.482-7.709 3.897-.765 1.098-1.257 2.36-1.476 3.732a11.441 11.441 0 00.274 4.666c.82 3.622 3.061 7.74 6.615 12.185-2.242 2.525-4.264 4.226-6.233 5.324-1.42.824-2.788 1.263-4.155 1.427a8.714 8.714 0 01-4.154-.549 8.145 8.145 0 01-4.975-6.422c-.164-1.372-.055-2.744.492-4.28.164-.55.437-1.099.71-1.757.383-.878.82-1.812 1.258-2.745l.054-.11c3.773-8.178 7.818-16.52 12.028-24.644l.164-.33c.437-.823.875-1.701 1.312-2.524.437-.879.93-1.702 1.53-2.416 1.149-1.317 2.68-2.03 4.374-2.03 1.695 0 3.226.713 4.374 2.03.601.714 1.093 1.537 1.53 2.416.438.823.875 1.701 1.313 2.524l.164.33a729.034 729.034 0 0111.973 24.7v.054c.437.879.82 1.867 1.257 2.745.273.658.547 1.207.71 1.756.438 1.427.602 2.8.384 4.227z" fill="#C4C4C4"/></svg>